<svg xmlns="http://www.w3.org/2000/svg" viewBox="0 0 800 800" role="img" aria-label="Eoin Derry avatar">
  <rect width="800" height="800" fill="#FBFAF7"/>
  <g stroke="#E7E5DB" stroke-width="2">
    <path d="M0 100h800M0 200h800M0 300h800M0 400h800M0 500h800M0 600h800M0 700h800"/>
    <path d="M100 0v800M200 0v800M300 0v800M400 0v800M500 0v800M600 0v800M700 0v800"/>
  </g>
  <g transform="translate(112 112) scale(6)">
    <g fill="#0E7A4F">
      <rect x="14" y="24" width="8" height="8" rx="2"/>
      <rect x="24" y="24" width="8" height="8" rx="2"/>
      <rect x="34" y="24" width="8" height="8" rx="2" fill="#6FC39A"/>
      <rect x="14" y="34" width="8" height="8" rx="2"/>
      <rect x="14" y="44" width="8" height="8" rx="2"/>
      <rect x="24" y="44" width="8" height="8" rx="2"/>
      <rect x="34" y="44" width="8" height="8" rx="2"/>
      <rect x="14" y="54" width="8" height="8" rx="2"/>
      <rect x="14" y="64" width="8" height="8" rx="2"/>
      <rect x="24" y="64" width="8" height="8" rx="2"/>
      <rect x="34" y="64" width="8" height="8" rx="2"/>
      <rect x="54" y="24" width="8" height="8" rx="2"/>
      <rect x="64" y="24" width="8" height="8" rx="2"/>
      <rect x="54" y="34" width="8" height="8" rx="2"/>
      <rect x="74" y="34" width="8" height="8" rx="2"/>
      <rect x="54" y="44" width="8" height="8" rx="2"/>
      <rect x="74" y="44" width="8" height="8" rx="2"/>
      <rect x="54" y="54" width="8" height="8" rx="2"/>
      <rect x="74" y="54" width="8" height="8" rx="2"/>
      <rect x="54" y="64" width="8" height="8" rx="2"/>
      <rect x="64" y="64" width="8" height="8" rx="2"/>
    </g>
  </g>
</svg>
