<svg xmlns="http://www.w3.org/2000/svg" viewBox="0 0 96 96" role="img" aria-label="Eoin Derry monogram">
  <!-- ED monogram built from spreadsheet cells. Accent: #0E7A4F, highlight cell: #6FC39A -->
  <g fill="#0E7A4F">
    <!-- E -->
    <rect x="14" y="24" width="8" height="8" rx="2"/>
    <rect x="24" y="24" width="8" height="8" rx="2"/>
    <rect x="34" y="24" width="8" height="8" rx="2" fill="#6FC39A"/>
    <rect x="14" y="34" width="8" height="8" rx="2"/>
    <rect x="14" y="44" width="8" height="8" rx="2"/>
    <rect x="24" y="44" width="8" height="8" rx="2"/>
    <rect x="34" y="44" width="8" height="8" rx="2"/>
    <rect x="14" y="54" width="8" height="8" rx="2"/>
    <rect x="14" y="64" width="8" height="8" rx="2"/>
    <rect x="24" y="64" width="8" height="8" rx="2"/>
    <rect x="34" y="64" width="8" height="8" rx="2"/>
    <!-- D -->
    <rect x="54" y="24" width="8" height="8" rx="2"/>
    <rect x="64" y="24" width="8" height="8" rx="2"/>
    <rect x="54" y="34" width="8" height="8" rx="2"/>
    <rect x="74" y="34" width="8" height="8" rx="2"/>
    <rect x="54" y="44" width="8" height="8" rx="2"/>
    <rect x="74" y="44" width="8" height="8" rx="2"/>
    <rect x="54" y="54" width="8" height="8" rx="2"/>
    <rect x="74" y="54" width="8" height="8" rx="2"/>
    <rect x="54" y="64" width="8" height="8" rx="2"/>
    <rect x="64" y="64" width="8" height="8" rx="2"/>
  </g>
</svg>
